<?xml version="1.0" encoding="UTF-8"?><svg id="Layer_1" xmlns="http://www.w3.org/2000/svg" width="389.27" height="84.5" viewBox="0 0 389.27 84.5"><defs><style>.cls-1{fill:#fff;}.cls-2{opacity:.05;}.cls-3{fill:none;}</style></defs><g class="cls-2"><rect class="cls-1" width="389.27" height="84.5"/></g><rect class="cls-3" width="389.27" height="84.5"/><g><path class="cls-1" d="M93.41,55.88c-2.37,0-3.73-1.14-4.74-3.61l-2.91-7.06c-.54-1.29-.85-2.51-.85-3.99,0-1.67,.25-2.7,.89-4.21l2.91-7.03c1.08-2.62,2.44-3.65,4.87-3.65h5.38c.7,0,1.58,.46,1.58,1.9,0,1.37-.85,1.9-1.58,1.9h-5.28c-1.36,0-1.58,.15-2.18,1.6l-2.75,6.61c-.41,1.03-.66,1.71-.66,2.89,0,1.06,.29,1.71,.66,2.62l2.69,6.57c.63,1.56,.95,1.67,2.37,1.67h5.16c.7,0,1.58,.46,1.58,1.9,0,1.37-.85,1.9-1.58,1.9h-5.54Z"/><path class="cls-1" d="M110.84,43v10.98c0,1.21-.44,1.9-1.58,1.9s-1.58-.68-1.58-1.9V28.23c0-1.21,.44-1.9,1.58-1.9s1.58,.68,1.58,1.9v10.98h9.3v-10.98c0-1.21,.44-1.9,1.58-1.9s1.58,.68,1.58,1.9v25.75c0,1.21-.44,1.9-1.58,1.9s-1.58-.68-1.58-1.9v-10.98h-9.3Z"/><path class="cls-1" d="M136.65,28.26c.25-1.03,.6-1.94,1.61-1.94s1.42,.95,1.64,1.94l6.1,25.71c.22,.91-.63,1.9-1.52,1.9-.98,0-1.49-.99-1.71-1.9l-1.17-4.56h-6.74l-1.2,4.56c-.22,.91-.73,1.9-1.71,1.9-.89,0-1.74-.99-1.52-1.9l6.2-25.71Zm1.64,7.06h-.06l-2.47,10.29h4.97l-2.44-10.29Z"/><path class="cls-1" d="M167.27,52.08c.82,0,1.58,.53,1.58,1.9s-.76,1.9-1.58,1.9h-14.04V28.23c0-1.21,.44-1.9,1.58-1.9s1.58,.68,1.58,1.9v23.85h10.88Z"/><path class="cls-1" d="M190.05,52.08c.82,0,1.58,.53,1.58,1.9s-.76,1.9-1.58,1.9h-14.04V28.23c0-1.21,.44-1.9,1.58-1.9s1.58,.68,1.58,1.9v23.85h10.88Z"/><path class="cls-1" d="M212.82,52.08c.82,0,1.58,.53,1.58,1.9s-.76,1.9-1.58,1.9h-14.04V26.33h14.04c.82,0,1.58,.53,1.58,1.9s-.76,1.9-1.58,1.9h-10.88v9.08h4.65c.82,0,1.58,.53,1.58,1.9s-.76,1.9-1.58,1.9h-4.65v9.08h10.88Z"/><path class="cls-1" d="M234.05,28.26c0-1.22,.44-1.9,1.58-1.9s1.58,.68,1.58,1.9v27.65h-4.18l-8.26-22.79v-.04h-.06v20.89c0,1.21-.44,1.9-1.58,1.9s-1.58-.68-1.58-1.9V26.33h4.18l8.26,23.05h.03l.03-21.12Z"/><path class="cls-1" d="M253.73,46.23c-.82,0-1.58-.53-1.58-1.9s.76-1.9,1.58-1.9h6.23v7.48c0,3.68-2.06,5.96-5.06,5.96h-5.44c-1.46,0-2.53-.3-3.64-1.52-1.27-1.37-1.49-2.77-1.49-4.67v-9.5c0-2.43,.44-3.68,1.64-5.54l3.73-5.73c1.26-1.94,2.37-2.58,4.43-2.58h4.24c.82,0,1.58,.53,1.58,1.9s-.76,1.9-1.58,1.9h-3.8c-1.74,0-1.61-.04-2.66,1.56l-3.45,5.28c-.98,1.48-.98,3.08-.98,4.94v7.44c0,2.09,.38,2.73,2.18,2.73h5.03c1.14,0,2.09-.3,2.09-1.98v-3.87h-3.07Z"/><path class="cls-1" d="M281.15,52.08c.82,0,1.58,.53,1.58,1.9s-.76,1.9-1.58,1.9h-14.04V26.33h14.04c.82,0,1.58,.53,1.58,1.9s-.76,1.9-1.58,1.9h-10.88v9.08h4.65c.82,0,1.58,.53,1.58,1.9s-.76,1.9-1.58,1.9h-4.65v9.08h10.88Z"/><path class="cls-1" d="M304.4,48.43c.63,.99,1.11,1.86,1.11,3.15,0,2.85-1.8,4.29-3.99,4.29h-6.96c-1.2,0-2.25-.27-3.19-1.21-.85-.84-1.49-2.2-1.49-3.53,0-1.22,.57-2.28,1.68-2.28,.92,0,1.49,.91,1.49,1.94,0,1.14,.51,1.29,1.39,1.29h6.86c.25,0,1.04,.11,1.04-.46,0-.3-.44-.87-.57-1.1l-10.85-16.75c-.66-1.03-1.04-1.79-1.04-3.11,0-1.52,.6-2.81,1.68-3.65,.89-.68,1.61-.68,2.62-.68h6.71c1.2,0,2.21,.3,3.13,1.25,.82,.87,1.49,2.28,1.49,3.61,0,1.21-.51,2.2-1.64,2.2-.95,0-1.52-.72-1.52-1.78,0-1.29-.54-1.48-1.52-1.48h-6.71c-.35,0-1.08-.11-1.08,.53,0,.34,.35,.8,.47,1.03l10.88,16.75Z"/></g></svg>