<?xml version="1.0" encoding="UTF-8"?><svg id="Layer_4" xmlns="http://www.w3.org/2000/svg" width="578" height="243" viewBox="0 0 578 243"><defs><style>.cls-1{fill:#02022d;}.cls-2{fill:#fcfcfc;}</style></defs><rect class="cls-2" width="578" height="243"/><g><path class="cls-1" d="M130.43,95.27h-29.08v20.02h12.53c1.11,0,2.07,.41,2.89,1.22,.82,.82,1.22,1.78,1.22,2.89,0,1.17-.4,2.17-1.2,2.99s-1.77,1.22-2.91,1.22h-12.53v20.17h29.17c1.11,0,2.07,.4,2.89,1.2,.82,.8,1.22,1.77,1.22,2.91s-.42,2.11-1.25,2.91c-.83,.8-1.82,1.2-2.96,1.2h-37.3V86.95h37.3c1.14,0,2.13,.42,2.96,1.25,.83,.83,1.25,1.82,1.25,2.96s-.42,2.07-1.25,2.89c-.83,.82-1.82,1.22-2.96,1.22Z"/><path class="cls-1" d="M175.13,127.69l-13.14,22.36c-.75,1.31-1.91,1.96-3.47,1.96-1.17,0-2.18-.42-3.01-1.27s-1.25-1.78-1.25-2.79c0-.78,.25-1.58,.74-2.4l15.33-26.07-15.04-25.77c-.59-1.01-.88-1.94-.88-2.79,0-1.04,.41-1.96,1.22-2.77,.81-.8,1.76-1.2,2.83-1.2,1.59,0,2.76,.66,3.51,1.97l13.25,22.24,13.05-22.17c.82-1.36,1.98-2.05,3.48-2.05,1.14,0,2.14,.4,2.99,1.19s1.28,1.75,1.28,2.87c0,.76-.21,1.5-.64,2.22l-15.44,26.29,15.35,26.33c.39,.65,.59,1.35,.59,2.09,0,1.16-.4,2.13-1.2,2.91-.8,.78-1.77,1.16-2.92,1.16-1.6,0-2.79-.65-3.58-1.95l-13.05-22.36Z"/><path class="cls-1" d="M214.23,147.89v-60.94h29.17c3.36,0,6.26,1.22,8.69,3.67,2.43,2.45,3.65,5.37,3.65,8.76v15.42c0,3.39-1.21,6.3-3.62,8.71-2.42,2.42-5.32,3.62-8.71,3.62h-20.85v20.75c0,1.14-.4,2.11-1.2,2.91s-1.77,1.2-2.91,1.2-2.17-.4-2.99-1.2c-.82-.8-1.22-1.77-1.22-2.91Zm8.32-28.98h20.85c1.11,0,2.07-.4,2.89-1.2s1.22-1.77,1.22-2.91v-15.42c0-1.14-.41-2.11-1.22-2.91s-1.78-1.2-2.89-1.2h-20.85v23.64Z"/><path class="cls-1" d="M274.79,152v-60.94c0-1.11,.41-2.07,1.22-2.89,.82-.81,1.78-1.22,2.89-1.22s2.07,.41,2.89,1.22c.82,.82,1.22,1.78,1.22,2.89v52.72h29.08c1.14,0,2.13,.4,2.96,1.2,.83,.8,1.25,1.77,1.25,2.91s-.42,2.11-1.25,2.91c-.83,.8-1.82,1.2-2.96,1.2h-37.3Z"/><path class="cls-1" d="M365.78,92.97l9.06,18.45c1.27,2.51,1.91,5.24,1.91,8.17s-.64,5.58-1.91,8.13l-9.06,18.26c-1.93,4.01-5.19,6.02-9.79,6.02-2.19,0-4.15-.57-5.9-1.71s-3.06-2.58-3.94-4.31l-9.1-18.26c-1.21-2.38-1.81-5.09-1.81-8.13s.6-5.76,1.81-8.17l9.1-18.45c2.06-4.01,5.34-6.02,9.84-6.02s7.83,2.01,9.79,6.02Zm-12.53,4.11l-8.52,17.33c-.78,1.73-1.17,3.43-1.17,5.09,0,1.79,.39,3.51,1.17,5.14l8.76,17.52c.46,1.08,1.29,1.62,2.5,1.62,1.04,0,1.84-.54,2.4-1.62l8.81-17.52c.82-1.73,1.22-3.44,1.22-5.14,0-1.79-.41-3.49-1.22-5.09l-8.62-17.33c-.56-1.27-1.42-1.91-2.59-1.91s-2.09,.64-2.74,1.91Z"/><path class="cls-1" d="M395.98,147.89v-60.94h29.08c3.36,0,6.26,1.22,8.69,3.67,2.43,2.45,3.65,5.37,3.65,8.76v4.7c0,3.43-1.21,6.36-3.62,8.79-2.42,2.43-5.32,3.65-8.71,3.65h-5.24l16.79,28.88c.52,.85,.78,1.7,.78,2.55,0,1.11-.43,2.06-1.28,2.86-.85,.8-1.82,1.2-2.9,1.2-1.64,0-2.88-.72-3.72-2.19l-19.25-33.3h-5.94v31.38c0,1.14-.42,2.11-1.25,2.91-.83,.8-1.82,1.2-2.96,1.2s-2.11-.4-2.91-1.2c-.8-.8-1.2-1.77-1.2-2.91Zm8.22-39.6h20.85c1.14,0,2.11-.4,2.91-1.2,.8-.8,1.2-1.77,1.2-2.91v-4.8c0-1.14-.4-2.11-1.2-2.91-.8-.8-1.77-1.2-2.91-1.2h-20.85v13.02Z"/><path class="cls-1" d="M493.74,95.27h-29.08v20.02h12.53c1.11,0,2.07,.41,2.89,1.22,.82,.82,1.22,1.78,1.22,2.89,0,1.17-.4,2.17-1.2,2.99s-1.77,1.22-2.91,1.22h-12.53v20.17h29.17c1.11,0,2.07,.4,2.89,1.2,.82,.8,1.22,1.77,1.22,2.91s-.42,2.11-1.25,2.91c-.83,.8-1.82,1.2-2.96,1.2h-37.3V86.95h37.3c1.14,0,2.13,.42,2.96,1.25,.83,.83,1.25,1.82,1.25,2.96s-.42,2.07-1.25,2.89c-.83,.82-1.82,1.22-2.96,1.22Z"/></g></svg>