<?xml version="1.0" encoding="UTF-8"?><svg id="Layer_1" xmlns="http://www.w3.org/2000/svg" width="389.27" height="84.5" viewBox="0 0 389.27 84.5"><defs><style>.cls-1{fill:#fff;}.cls-2{fill:none;}</style></defs><rect class="cls-2" width="389.27" height="84.5"/><g><path class="cls-1" d="M199.49,25.42h5.17c.43,0,.8,.18,1.1,.54,.3,.36,.45,.8,.45,1.32,0,.55-.16,1-.49,1.36-.33,.36-.68,.54-1.07,.54h-4.94c-.48,0-.9,.26-1.26,.81l-4.37,6.71c-.37,.53-.55,1.27-.55,2.21v10.3c0,.53,.15,.98,.45,1.35s.67,.55,1.1,.55h6.34c.42,0,.79-.18,1.09-.55,.31-.37,.46-.8,.46-1.31v-4.03h-3.23c-.45,0-.82-.18-1.11-.54-.3-.36-.44-.8-.44-1.32s.15-.96,.44-1.32c.3-.36,.67-.54,1.11-.54h6.34v7.75c0,1.54-.46,2.85-1.37,3.94-.92,1.09-2.02,1.64-3.3,1.64h-6.34c-1.3,0-2.41-.55-3.33-1.64-.92-1.09-1.38-2.4-1.38-3.94v-10.29c0-1.84,.41-3.4,1.24-4.67l4.6-6.97c.33-.53,.8-.98,1.4-1.35,.6-.37,1.22-.55,1.86-.55Z"/><path class="cls-1" d="M224.93,28.14l3.43,8.34c.48,1.14,.72,2.37,.72,3.7s-.24,2.52-.72,3.67l-3.43,8.26c-.73,1.81-1.97,2.72-3.71,2.72-.83,0-1.57-.26-2.24-.77-.66-.52-1.16-1.17-1.49-1.95l-3.45-8.26c-.46-1.08-.69-2.3-.69-3.67s.23-2.6,.69-3.7l3.45-8.34c.78-1.81,2.02-2.72,3.73-2.72s2.97,.91,3.71,2.72Zm-4.75,1.86l-3.23,7.84c-.3,.78-.45,1.55-.45,2.3,0,.81,.15,1.59,.45,2.32l3.32,7.92c.17,.49,.49,.73,.95,.73,.4,0,.7-.24,.91-.73l3.34-7.92c.31-.78,.46-1.56,.46-2.32,0-.81-.15-1.58-.46-2.3l-3.26-7.84c-.21-.58-.54-.86-.98-.86s-.79,.29-1.04,.86Z"/><path class="cls-1" d="M274.97,45.72v1.64c0,2.05-.61,3.81-1.83,5.28-1.22,1.47-2.69,2.2-4.4,2.2h-9.53V25.42h9.53c1.72,0,3.19,.73,4.4,2.19s1.83,3.22,1.83,5.29v1.57c0,2.2-.71,4.07-2.13,5.62,1.42,1.58,2.13,3.45,2.13,5.62Zm-3.19-11.29v-1.53c0-1.03-.31-1.92-.92-2.66-.61-.74-1.34-1.11-2.2-1.11h-6.34v9.01h6.34c.84,0,1.57-.37,2.19-1.1s.93-1.6,.93-2.62Zm0,12.93v-1.55c0-1.03-.31-1.92-.92-2.66-.61-.74-1.34-1.11-2.2-1.11h-6.31v9.03h6.31c.84,0,1.57-.37,2.19-1.1,.62-.73,.93-1.6,.93-2.62Z"/><path class="cls-1" d="M282.31,52.25l6.27-25.44c.25-.92,.77-1.38,1.58-1.38s1.26,.39,1.46,1.17l6.21,25.83c.05,.19,.07,.38,.07,.55,0,.52-.15,.96-.45,1.32-.3,.36-.64,.54-1.02,.54-.82,0-1.33-.45-1.56-1.35l-1.23-5.05h-7.13l-1.36,5.41c-.04,.23-.19,.46-.47,.67-.27,.21-.57,.32-.89,.32-.46,0-.84-.18-1.14-.55-.3-.37-.45-.82-.45-1.35,0-.22,.03-.45,.09-.69Zm7.83-18.22l-2.67,10.65h5.27l-2.6-10.65Z"/><path class="cls-1" d="M313.71,51.12h5.62c.43,0,.81,.18,1.12,.54,.32,.36,.47,.8,.47,1.32s-.16,.96-.47,1.32c-.32,.36-.69,.54-1.12,.54h-5.82c-.74,0-1.51-.28-2.3-.84-.79-.56-1.34-1.19-1.65-1.88l-3.6-8.3c-.48-1.2-.72-2.42-.72-3.67,0-1.39,.23-2.59,.69-3.61l3.63-8.21c.35-.77,.88-1.44,1.61-2.03s1.43-.87,2.12-.87h6.16c.43,0,.8,.18,1.1,.55,.3,.37,.45,.8,.45,1.31s-.15,.96-.45,1.34c-.3,.38-.67,.56-1.1,.56h-5.93c-.49,0-.9,.35-1.21,1.04l-3.46,7.7c-.27,.6-.41,1.32-.41,2.15,0,.87,.15,1.64,.44,2.3l3.3,7.57c.31,.78,.82,1.17,1.52,1.17Z"/><path class="cls-1" d="M328.07,52.98V27.32c0-.53,.15-.98,.46-1.35,.3-.37,.67-.55,1.1-.55s.8,.18,1.1,.54c.3,.36,.45,.8,.45,1.32v8.79l9.98-10.17c.35-.34,.74-.5,1.17-.49,.43,0,.8,.19,1.09,.57,.3,.38,.45,.82,.45,1.31,0,.51-.18,.93-.51,1.27l-11.3,11.47,11.32,11.67c.31,.31,.46,.71,.46,1.2,0,.49-.15,.93-.45,1.33-.3,.4-.68,.6-1.12,.6-.42,0-.8-.17-1.13-.51l-9.94-10.22v8.87c0,.52-.15,.95-.45,1.32-.3,.36-.67,.54-1.1,.54s-.79-.18-1.09-.54c-.31-.36-.46-.8-.46-1.32Z"/></g><g><path class="cls-1" d="M112,59.67c-26.46,0-48.12-8.3-62.23-15.74l2.33-4.42c15.26,8.05,39.7,17.15,69.5,14.78,12.58-1,24.98-3.96,36.86-8.8l1.89,4.63c-12.35,5.04-25.26,8.12-38.35,9.16-3.4,.27-6.74,.4-10,.4Z"/><polygon class="cls-1" points="55.58 58.99 47.06 39.56 65.32 34.28 66.71 39.08 53.93 42.78 60.16 56.98 55.58 58.99"/></g></svg>