<?xml version="1.0" encoding="UTF-8"?><svg id="Layer_3" xmlns="http://www.w3.org/2000/svg" width="136" height="136" viewBox="0 0 136 136"><defs><style>.cls-1{fill:#fff;}.cls-2{fill:#03032b;}</style></defs><circle class="cls-1" cx="68" cy="68" r="68"/><g><path class="cls-2" d="M25.61,48.37v-5.84h15.62v5.89c0,.6-.15,1.11-.46,1.53-.31,.42-.67,.63-1.09,.63s-.8-.21-1.11-.64c-.31-.43-.47-.93-.47-1.52v-1.57h-3.13v27.67c0,.6-.15,1.11-.46,1.53-.31,.42-.67,.63-1.09,.63-.44,0-.82-.21-1.12-.63-.31-.42-.46-.93-.46-1.53v-27.67h-3.13v1.52c0,.6-.15,1.11-.45,1.53-.3,.42-.67,.63-1.1,.63s-.8-.21-1.1-.63c-.3-.42-.45-.93-.45-1.53Z"/><path class="cls-2" d="M62.48,46.85h-10.94v10.53h4.72c.42,0,.78,.21,1.09,.64,.31,.43,.46,.94,.46,1.52,0,.62-.15,1.14-.45,1.57-.3,.43-.67,.64-1.1,.64h-4.72v10.6h10.98c.42,0,.78,.21,1.09,.63,.31,.42,.46,.93,.46,1.53s-.16,1.11-.47,1.53c-.31,.42-.69,.63-1.12,.63h-14.04V42.48h14.04c.43,0,.8,.22,1.12,.66,.31,.44,.47,.96,.47,1.56s-.16,1.09-.47,1.52c-.31,.43-.69,.64-1.12,.64Z"/><path class="cls-2" d="M71.27,74.52V42.48h10.94c1.27,0,2.36,.64,3.27,1.93s1.37,2.82,1.37,4.61v2.47c0,1.8-.46,3.34-1.36,4.62-.91,1.28-2,1.92-3.28,1.92h-1.97l6.32,15.18c.2,.45,.29,.89,.29,1.34,0,.58-.16,1.08-.48,1.5-.32,.42-.68,.63-1.09,.63-.62,0-1.08-.38-1.4-1.15l-7.25-17.51h-2.24v16.5c0,.6-.16,1.11-.47,1.53-.31,.42-.69,.63-1.12,.63s-.79-.21-1.1-.63c-.3-.42-.45-.93-.45-1.53Zm3.1-20.82h7.85c.43,0,.8-.21,1.1-.63,.3-.42,.45-.93,.45-1.53v-2.52c0-.6-.15-1.11-.45-1.53-.3-.42-.67-.63-1.1-.63h-7.85v6.85Z"/><path class="cls-2" d="M95.53,42.48h12.53c.41,0,.76,.21,1.08,.64,.31,.43,.47,.94,.47,1.52s-.15,1.12-.46,1.56c-.31,.44-.67,.66-1.09,.66h-4.68v25.5h4.68c.43,0,.79,.21,1.1,.63,.3,.42,.45,.93,.45,1.53s-.15,1.11-.46,1.53c-.31,.42-.67,.63-1.09,.63h-12.53c-.43,0-.8-.21-1.1-.63-.3-.42-.45-.93-.45-1.53s.15-1.11,.45-1.53c.3-.42,.67-.63,1.1-.63h4.75v-25.5h-4.75c-.43,0-.8-.21-1.1-.64s-.45-.94-.45-1.52c0-.62,.15-1.14,.45-1.57,.3-.43,.67-.64,1.1-.64Z"/></g><g><path class="cls-2" d="M36.75,88.37h1.99c.09,0,.15,.03,.19,.09,.04,.06,.06,.15,.06,.25,0,.09-.02,.17-.06,.24-.04,.06-.1,.09-.19,.09h-1.99v4.44c0,.39,.08,.71,.25,.97s.42,.39,.75,.39c.25,0,.51-.07,.8-.2,.29-.13,.51-.29,.67-.46,.06-.07,.11-.1,.14-.1,.05,0,.09,.03,.12,.1,.04,.07,.05,.14,.05,.23,0,.08-.02,.15-.06,.22-.09,.17-.32,.36-.68,.57-.36,.2-.7,.31-1.03,.31-.43,0-.77-.18-1.02-.55s-.38-.86-.38-1.48v-4.44h-.68c-.09,0-.15-.03-.19-.09-.04-.06-.06-.15-.06-.25,0-.09,.02-.17,.06-.24,.04-.06,.1-.09,.19-.09h.68v-1.97c0-.16,.02-.27,.05-.34,.04-.07,.08-.1,.13-.1,.06,0,.1,.04,.14,.1,.03,.07,.05,.18,.05,.34v1.97Z"/><path class="cls-2" d="M41.66,85.28v4.11c.23-.46,.46-.79,.67-.97,.21-.19,.45-.28,.72-.28,.29,0,.53,.09,.73,.27,.2,.18,.37,.46,.5,.84s.2,.78,.2,1.2v4.14h.41c.09,0,.15,.03,.19,.09s.05,.14,.05,.24-.02,.17-.05,.24-.1,.1-.19,.1h-1.19c-.09,0-.15-.03-.19-.1-.04-.06-.06-.14-.06-.24,0-.1,.02-.18,.06-.24,.04-.06,.1-.09,.19-.09h.41v-4.09c0-.48-.1-.88-.29-1.21s-.46-.49-.79-.49c-.27,0-.5,.12-.68,.36-.14,.17-.36,.57-.68,1.2v4.23h.41c.09,0,.15,.03,.19,.09,.04,.06,.06,.14,.06,.24s-.02,.17-.06,.24c-.04,.06-.1,.1-.19,.1h-1.19c-.09,0-.15-.03-.19-.1-.04-.06-.06-.14-.06-.24,0-.1,.02-.18,.06-.24,.04-.06,.1-.09,.19-.09h.41v-8.63h-.49c-.09,0-.15-.03-.19-.09-.04-.06-.06-.15-.06-.25,0-.09,.02-.17,.06-.24,.04-.06,.1-.09,.19-.09h.86Z"/><path class="cls-2" d="M50.2,91.97h-3.73c.06,.86,.26,1.56,.59,2.09s.75,.79,1.24,.79c.27,0,.56-.08,.86-.25,.3-.17,.54-.38,.73-.65,.06-.08,.1-.12,.14-.12,.05,0,.09,.03,.12,.1,.04,.07,.05,.14,.05,.23s-.02,.18-.07,.26c-.14,.26-.39,.51-.74,.74-.36,.23-.72,.35-1.1,.35-.63,0-1.15-.38-1.57-1.12s-.63-1.66-.63-2.72c0-.97,.2-1.8,.59-2.5s.88-1.04,1.46-1.04,1.09,.36,1.48,1.07,.58,1.64,.57,2.77Zm-.37-.68c-.07-.74-.26-1.34-.57-1.8-.31-.46-.68-.69-1.11-.69s-.79,.23-1.1,.68c-.31,.46-.5,1.06-.58,1.8h3.36Z"/><path class="cls-2" d="M56.01,99.71h-4.87c-.09,0-.15-.03-.19-.09-.04-.06-.06-.14-.06-.24s.02-.18,.06-.24c.04-.06,.1-.09,.19-.09h4.87c.09,0,.15,.03,.19,.09,.04,.06,.05,.14,.05,.24s-.02,.18-.05,.24c-.04,.06-.1,.09-.19,.09Z"/><path class="cls-2" d="M60.73,85.28v9.31h.49c.09,0,.15,.03,.19,.09,.04,.06,.06,.14,.06,.24s-.02,.17-.06,.24c-.04,.06-.1,.1-.19,.1h-.86v-1.33c-.42,1.06-.96,1.59-1.62,1.59-.33,0-.65-.16-.95-.48s-.54-.78-.72-1.37c-.18-.59-.26-1.21-.26-1.84s.09-1.25,.26-1.84c.18-.59,.42-1.05,.72-1.37s.62-.49,.96-.49c.64,0,1.18,.53,1.61,1.59v-3.77h-.49c-.09,0-.15-.03-.19-.09-.04-.06-.06-.15-.06-.25,0-.09,.02-.17,.06-.24,.04-.06,.1-.09,.19-.09h.86Zm-.37,6.55c0-.85-.16-1.56-.47-2.15-.31-.58-.69-.88-1.12-.88s-.81,.29-1.12,.88c-.31,.58-.47,1.3-.47,2.15s.16,1.56,.47,2.14c.31,.58,.69,.88,1.12,.88s.81-.29,1.12-.88c.31-.59,.47-1.3,.47-2.14Z"/><path class="cls-2" d="M66.27,91.97h-3.73c.06,.86,.26,1.56,.59,2.09s.75,.79,1.24,.79c.27,0,.56-.08,.86-.25,.3-.17,.54-.38,.73-.65,.06-.08,.1-.12,.14-.12,.05,0,.09,.03,.12,.1,.04,.07,.05,.14,.05,.23s-.02,.18-.07,.26c-.14,.26-.39,.51-.74,.74-.36,.23-.72,.35-1.1,.35-.63,0-1.15-.38-1.57-1.12s-.63-1.66-.63-2.72c0-.97,.2-1.8,.59-2.5s.88-1.04,1.46-1.04,1.09,.36,1.48,1.07,.58,1.64,.57,2.77Zm-.37-.68c-.07-.74-.26-1.34-.57-1.8-.31-.46-.68-.69-1.11-.69s-.79,.23-1.1,.68c-.31,.46-.5,1.06-.58,1.8h3.36Z"/><path class="cls-2" d="M70.86,88.81c0-.15,.02-.26,.05-.33,.04-.07,.08-.1,.13-.1,.06,0,.1,.03,.14,.1,.03,.07,.05,.19,.05,.35v1.14c0,.16-.02,.27-.05,.34-.04,.07-.08,.1-.14,.1-.05,0-.09-.03-.12-.09s-.05-.15-.06-.29c-.02-.32-.11-.58-.27-.79-.24-.3-.55-.45-.95-.45s-.73,.15-.95,.45c-.17,.23-.26,.48-.26,.76,0,.32,.1,.58,.31,.79,.14,.15,.4,.26,.79,.34,.51,.1,.86,.21,1.06,.34,.28,.19,.49,.44,.63,.77s.21,.68,.21,1.07c0,.57-.15,1.07-.45,1.51-.3,.44-.74,.66-1.32,.66s-1.05-.27-1.42-.8c0,.18,0,.3-.02,.35-.01,.05-.03,.1-.06,.13-.03,.04-.06,.06-.1,.06-.05,0-.1-.03-.13-.1-.04-.07-.05-.18-.05-.34v-1.38c0-.16,.02-.27,.05-.34,.03-.07,.08-.1,.13-.1,.05,0,.1,.03,.13,.1,.04,.07,.05,.16,.05,.27,0,.24,.03,.45,.1,.61,.1,.25,.26,.47,.49,.63,.22,.17,.5,.25,.82,.25,.48,0,.83-.16,1.06-.49,.23-.32,.35-.66,.35-1.02,0-.41-.12-.75-.35-.99-.24-.25-.58-.42-1.04-.5-.46-.08-.78-.2-.98-.33-.2-.14-.35-.34-.46-.62-.11-.28-.17-.57-.17-.89,0-.57,.15-1.03,.46-1.36,.31-.34,.68-.5,1.1-.5,.5,0,.92,.23,1.23,.68Z"/><path class="cls-2" d="M75.2,88.37v6.21h1.44c.09,0,.15,.03,.19,.09,.04,.06,.06,.14,.06,.24s-.02,.17-.06,.24c-.04,.06-.1,.1-.19,.1h-3.24c-.09,0-.15-.03-.19-.1-.04-.06-.06-.14-.06-.24,0-.1,.02-.18,.06-.24,.04-.06,.1-.09,.19-.09h1.44v-5.54h-1.07c-.09,0-.15-.03-.19-.09s-.06-.14-.06-.24c0-.1,.02-.18,.06-.25,.04-.06,.1-.09,.19-.09h1.43Zm-.01-3.43v1.72h-.54v-1.72h.54Z"/><path class="cls-2" d="M81.6,89.6v-1.22h.86c.09,0,.15,.03,.19,.09,.04,.06,.06,.15,.06,.25,0,.09-.02,.17-.06,.24-.04,.06-.1,.09-.19,.09h-.49v6.67c0,.45-.05,.84-.16,1.19-.07,.23-.19,.47-.35,.72-.16,.25-.31,.43-.44,.53-.13,.11-.31,.16-.54,.16h-1.04c-.09,0-.15-.03-.19-.09-.04-.06-.06-.14-.06-.24s.02-.18,.06-.25c.04-.06,.1-.1,.19-.1h1.05c.22,0,.41-.09,.58-.29,.17-.2,.32-.5,.43-.88,.06-.22,.1-.51,.1-.85v-2c-.39,.98-.9,1.47-1.52,1.47-.5,0-.94-.34-1.3-1.02-.36-.68-.55-1.5-.55-2.46s.18-1.78,.55-2.46c.37-.68,.8-1.02,1.3-1.02,.62,0,1.12,.49,1.52,1.46Zm0,2.01c0-.78-.15-1.45-.44-1.99-.29-.54-.65-.81-1.06-.81s-.76,.27-1.06,.82c-.29,.54-.44,1.2-.44,1.98s.15,1.45,.44,1.99c.29,.54,.65,.81,1.06,.81s.76-.27,1.06-.81,.44-1.21,.44-1.99Z"/><path class="cls-2" d="M84.54,88.37v1.01c.26-.47,.49-.8,.69-.98,.21-.18,.44-.27,.7-.27,.28,0,.53,.11,.76,.33,.16,.16,.31,.42,.44,.79,.13,.37,.2,.75,.2,1.13v4.2h.31c.09,0,.15,.03,.19,.09,.04,.06,.06,.14,.06,.24s-.02,.17-.06,.24c-.04,.06-.1,.1-.19,.1h-.98c-.09,0-.15-.03-.19-.1-.04-.06-.06-.14-.06-.24,0-.1,.02-.18,.06-.24,.04-.06,.1-.09,.19-.09h.31v-4.09c0-.47-.09-.87-.28-1.2-.19-.33-.44-.49-.76-.49-.24,0-.45,.09-.63,.27-.18,.18-.43,.62-.76,1.32v4.19h.41c.09,0,.15,.03,.19,.09s.06,.14,.06,.24-.02,.17-.06,.24-.1,.1-.19,.1h-1.19c-.09,0-.15-.03-.19-.1s-.06-.14-.06-.24c0-.1,.02-.18,.06-.24s.1-.09,.19-.09h.41v-5.54h-.31c-.09,0-.15-.03-.19-.09-.04-.06-.06-.15-.06-.25,0-.09,.02-.17,.06-.24,.04-.06,.1-.09,.19-.09h.68Z"/><path class="cls-2" d="M93.06,91.97h-3.73c.06,.86,.26,1.56,.59,2.09s.75,.79,1.24,.79c.27,0,.56-.08,.86-.25,.3-.17,.54-.38,.73-.65,.06-.08,.1-.12,.14-.12,.05,0,.09,.03,.12,.1,.04,.07,.05,.14,.05,.23s-.02,.18-.07,.26c-.14,.26-.39,.51-.74,.74-.36,.23-.72,.35-1.1,.35-.63,0-1.15-.38-1.57-1.12s-.63-1.66-.63-2.72c0-.97,.2-1.8,.59-2.5s.88-1.04,1.46-1.04,1.09,.36,1.48,1.07,.58,1.64,.57,2.77Zm-.37-.68c-.07-.74-.26-1.34-.57-1.8-.31-.46-.68-.69-1.11-.69s-.79,.23-1.1,.68c-.31,.46-.5,1.06-.58,1.8h3.36Z"/><path class="cls-2" d="M96,88.37v1.68c.48-.78,.83-1.29,1.07-1.51,.24-.23,.46-.34,.66-.34,.22,0,.42,.13,.61,.4s.28,.47,.28,.61c0,.1-.02,.18-.05,.25s-.08,.1-.14,.1c-.03,0-.05,0-.07-.03-.02-.02-.06-.08-.11-.18-.1-.19-.19-.31-.27-.38-.08-.07-.15-.1-.22-.1-.16,0-.35,.12-.58,.35-.23,.23-.62,.8-1.17,1.71v3.66h1.62c.09,0,.15,.03,.19,.09,.04,.06,.06,.14,.06,.24s-.02,.17-.06,.24c-.04,.06-.1,.1-.19,.1h-2.87c-.09,0-.15-.03-.19-.09-.04-.06-.06-.14-.06-.23,0-.09,.02-.17,.05-.23,.04-.06,.1-.09,.19-.09h.89v-5.56h-.68c-.09,0-.15-.03-.19-.09-.04-.06-.06-.15-.06-.25,0-.09,.02-.17,.05-.24,.04-.06,.1-.09,.19-.09h1.04Z"/></g></svg>