<?xml version="1.0" encoding="UTF-8"?><svg id="Layer_2" xmlns="http://www.w3.org/2000/svg" width="120" height="120" viewBox="0 0 120 120"><defs><style>.cls-1{fill:#fcfcfc;}</style></defs><path class="cls-1" d="M72.44,10.02c-4.01-.11-10.54,.22-17.91,3.05-12.26,4.72-19.18,13.44-21.89,17.3-1.57,2.24-9.34,13.78-8.95,30.54,.38,16.24,8.18,27.15,9.95,29.52,10.21,13.69,24.08,17.44,27.86,18.32,17.65,4.14,31.51-3.21,34.82-5.09-5.35-1.24-21.79-5.79-32.83-21.38-2.3-3.25-7.66-11.01-8.95-22.39-1.03-9.05,1.01-15.96,2.98-22.39,1.97-6.42,6.05-16.74,14.92-27.48Z"/></svg>