<?xml version="1.0" encoding="UTF-8"?><svg id="Layer_2" xmlns="http://www.w3.org/2000/svg" width="120" height="120" viewBox="0 0 120 120"><defs><style>.cls-1{fill:#fcfcfc;}</style></defs><path class="cls-1" d="M75.7,10c-3.68,0-9.04,.33-15.25,2.03-3.84,1.05-10.39,2.92-17.28,8.13-1.32,1-6.54,5.06-11.18,12.2-4.93,7.58-6.58,14.59-7.12,17.28-.57,2.84-2.16,12.1,1.02,23.38,1.47,5.21,5.3,15.6,15.25,24.4,11.36,10.05,23.73,11.85,26.43,12.2,13.95,1.77,24.59-3.08,28.46-5.08-3.68,.18-9,.14-15.25-1.02-6.43-1.19-17.52-3.25-27.45-12.2-12.51-11.28-14.79-25.94-15.25-29.48-.44-3.46-1.72-14.57,4.07-26.43,9.59-19.66,30.47-24.72,33.54-25.41Z"/></svg>