<?xml version="1.0" encoding="UTF-8"?><svg xmlns="http://www.w3.org/2000/svg" width="389.27" height="84.5" viewBox="0 0 389.27 84.5"><defs><style>.cls-1{fill:#fff;}.cls-2{opacity:.05;}.cls-3{opacity:.1;}.cls-4{fill:none;}</style></defs><g id="Layer_1"><g class="cls-2"><rect class="cls-1" width="389.27" height="84.5"/></g><rect class="cls-4" width="389.27" height="84.5"/><g><path class="cls-1" d="M104.7,37c.6,1.48,.82,2.58,.82,4.21,0,1.82-.41,2.96-1.04,4.52l-2.91,6.99c-.76,1.82-2.02,3.15-3.86,3.15s-3.1-1.33-3.86-3.15l-2.91-6.99c-.63-1.56-1.04-2.7-1.04-4.52,0-1.63,.22-2.73,.82-4.21l3.16-7.56c.76-1.78,2.06-3.11,3.83-3.11s3.07,1.33,3.83,3.11l3.16,7.56Zm-5.92-5.73c-.25-.61-.41-1.14-1.08-1.14s-.82,.53-1.08,1.14l-2.85,6.87c-.47,1.1-.73,1.82-.73,3.08,0,.99,.19,1.67,.54,2.51l3.04,7.21c.22,.53,.44,1.14,1.08,1.14s.85-.61,1.08-1.14l3.04-7.21c.35-.84,.54-1.52,.54-2.51,0-1.25-.25-1.97-.73-3.08l-2.85-6.87Z"/><path class="cls-1" d="M115.84,53.98c0,1.21-.44,1.9-1.58,1.9s-1.58-.68-1.58-1.9V26.33h10.5c1.46,0,2.5,.27,3.64,1.56,1.36,1.52,1.49,2.92,1.49,4.98v5.17c0,1.94-.13,3.3-1.3,4.86-1.23,1.67-2.53,1.82-4.24,1.82h-6.93v9.27Zm0-13.06h7.02c1.87,0,2.28-.57,2.28-2.73v-5.32c0-2.17-.41-2.74-2.28-2.74h-7.02v10.79Z"/><path class="cls-1" d="M149.49,52.08c.82,0,1.58,.53,1.58,1.9s-.76,1.9-1.58,1.9h-14.04V26.33h14.04c.82,0,1.58,.53,1.58,1.9s-.76,1.9-1.58,1.9h-10.88v9.08h4.65c.82,0,1.58,.53,1.58,1.9s-.76,1.9-1.58,1.9h-4.65v9.08h10.88Z"/><path class="cls-1" d="M170.72,28.26c0-1.22,.44-1.9,1.58-1.9s1.58,.68,1.58,1.9v27.65h-4.17l-8.26-22.79v-.04h-.06v20.89c0,1.21-.44,1.9-1.58,1.9s-1.58-.68-1.58-1.9V26.33h4.18l8.26,23.05h.03l.03-21.12Z"/><path class="cls-1" d="M209.98,28.26c.25-1.03,.6-1.94,1.61-1.94s1.42,.95,1.64,1.94l6.1,25.71c.22,.91-.63,1.9-1.52,1.9-.98,0-1.49-.99-1.71-1.9l-1.17-4.56h-6.74l-1.2,4.56c-.22,.91-.73,1.9-1.71,1.9-.89,0-1.74-.99-1.52-1.9l6.2-25.71Zm1.64,7.06h-.06l-2.47,10.29h4.97l-2.44-10.29Z"/><path class="cls-1" d="M252.49,53.98c0,1.21-.44,1.9-1.58,1.9s-1.58-.68-1.58-1.9V26.33h10.5c1.46,0,2.5,.27,3.64,1.56,1.36,1.52,1.49,2.92,1.49,4.98v5.17c0,1.94-.13,3.3-1.3,4.86-1.23,1.67-2.53,1.82-4.24,1.82h-6.93v9.27Zm0-13.06h7.02c1.87,0,2.28-.57,2.28-2.73v-5.32c0-2.17-.41-2.74-2.28-2.74h-7.02v10.79Z"/><path class="cls-1" d="M275.21,30.12h-1.17c-1.04,0-1.93-.46-1.93-1.9,0-1.37,.85-1.9,1.83-1.9h5.28c2.47,0,3.7,1.21,4.78,3.8l2.78,6.69c.63,1.56,.95,2.66,.95,4.4,0,1.52-.35,2.81-.92,4.18l-2.88,6.91c-1.11,2.7-2.53,3.57-5,3.57h-5.25c-.82,0-1.58-.53-1.58-1.9s.76-1.9,1.58-1.9h1.52V30.12Zm3.16,21.95h.6c1.33,0,1.64-.19,2.21-1.6l2.78-6.76c.35-.87,.6-1.52,.6-2.47,0-1.29-.35-2.01-.79-3.12l-2.62-6.42c-.66-1.63-.95-1.6-2.4-1.6h-.38v21.95Z"/><path class="cls-1" d="M294.88,26.33h14.04c.82,0,1.58,.53,1.58,1.9s-.76,1.9-1.58,1.9h-10.88v5.85h7.78c.82,0,1.58,.53,1.58,1.9s-.76,1.9-1.58,1.9h-7.78v14.2c0,1.21-.44,1.9-1.58,1.9s-1.58-.68-1.58-1.9V26.33Z"/></g></g><g id="Layer_2"><g class="cls-3"><g><circle class="cls-1" cx="328.63" cy="40.15" r="2.18"/><circle class="cls-1" cx="277.04" cy="51.89" r="1.36"/></g></g></g></svg>