<?xml version="1.0" encoding="UTF-8"?><svg id="Layer_1" xmlns="http://www.w3.org/2000/svg" width="425.27" height="126.5" viewBox="0 0 425.27 126.5"><defs><style>.cls-1{fill:#fff;}.cls-2{opacity:.05;}.cls-3{fill:none;}</style></defs><g class="cls-2"><rect class="cls-1" width="389.27" height="84.5"/></g><rect class="cls-3" width="389.27" height="84.5"/><g><path class="cls-1" d="M36.41,55.88c-2.37,0-3.73-1.14-4.74-3.61l-2.91-7.06c-.54-1.29-.85-2.51-.85-3.99,0-1.67,.25-2.7,.89-4.22l2.91-7.03c1.08-2.62,2.44-3.65,4.87-3.65h5.38c.7,0,1.58,.46,1.58,1.9,0,1.37-.85,1.9-1.58,1.9h-5.28c-1.36,0-1.58,.15-2.18,1.6l-2.75,6.61c-.41,1.03-.66,1.71-.66,2.89,0,1.06,.29,1.71,.66,2.62l2.69,6.57c.63,1.56,.95,1.67,2.37,1.67h5.16c.7,0,1.58,.46,1.58,1.9,0,1.37-.85,1.9-1.58,1.9h-5.54Z"/><path class="cls-1" d="M53.84,43v10.98c0,1.22-.44,1.9-1.58,1.9s-1.58-.68-1.58-1.9V28.23c0-1.22,.44-1.9,1.58-1.9s1.58,.68,1.58,1.9v10.98h9.3v-10.98c0-1.22,.44-1.9,1.58-1.9s1.58,.68,1.58,1.9v25.75c0,1.22-.44,1.9-1.58,1.9s-1.58-.68-1.58-1.9v-10.98h-9.3Z"/><path class="cls-1" d="M87.49,52.08c.82,0,1.58,.53,1.58,1.9s-.76,1.9-1.58,1.9h-14.04V26.33h14.04c.82,0,1.58,.53,1.58,1.9s-.76,1.9-1.58,1.9h-10.88v9.08h4.65c.82,0,1.58,.53,1.58,1.9s-.76,1.9-1.58,1.9h-4.65v9.08h10.88Z"/><path class="cls-1" d="M104.73,55.88c-2.37,0-3.73-1.14-4.74-3.61l-2.91-7.06c-.54-1.29-.85-2.51-.85-3.99,0-1.67,.25-2.7,.89-4.22l2.91-7.03c1.08-2.62,2.44-3.65,4.87-3.65h5.38c.7,0,1.58,.46,1.58,1.9,0,1.37-.85,1.9-1.58,1.9h-5.28c-1.36,0-1.58,.15-2.18,1.6l-2.75,6.61c-.41,1.03-.66,1.71-.66,2.89,0,1.06,.29,1.71,.66,2.62l2.69,6.57c.63,1.56,.95,1.67,2.37,1.67h5.16c.7,0,1.58,.46,1.58,1.9,0,1.37-.85,1.9-1.58,1.9h-5.54Z"/><path class="cls-1" d="M119,28.23c0-1.22,.44-1.9,1.58-1.9s1.58,.68,1.58,1.9v8.74l9.65-9.84c.38-.38,.79-.76,1.3-.76,.92,0,1.52,.91,1.52,1.98,0,.65-.35,1.18-.73,1.59l-10.91,11.17,10.85,11.17c.41,.42,.79,.95,.79,1.63,0,1.06-.6,1.98-1.52,1.98-.66,0-1.2-.68-1.71-1.14l-9.24-9.53v8.77c0,1.22-.44,1.9-1.58,1.9s-1.58-.68-1.58-1.9V28.23Z"/><path class="cls-1" d="M179.36,37c.6,1.48,.82,2.58,.82,4.22,0,1.82-.41,2.96-1.04,4.52l-2.91,6.99c-.76,1.82-2.02,3.15-3.86,3.15s-3.1-1.33-3.86-3.15l-2.91-6.99c-.63-1.56-1.04-2.7-1.04-4.52,0-1.63,.22-2.73,.82-4.22l3.16-7.56c.76-1.78,2.06-3.11,3.83-3.11s3.07,1.33,3.83,3.11l3.16,7.56Zm-5.92-5.73c-.25-.61-.41-1.14-1.08-1.14s-.82,.53-1.08,1.14l-2.85,6.87c-.47,1.1-.73,1.82-.73,3.08,0,.99,.19,1.67,.54,2.51l3.04,7.22c.22,.53,.44,1.14,1.08,1.14s.85-.61,1.08-1.14l3.04-7.22c.35-.84,.54-1.52,.54-2.51,0-1.25-.25-1.97-.73-3.08l-2.85-6.87Z"/><path class="cls-1" d="M192.46,55.88c-1.58,0-2.81-.46-3.92-1.94-1.04-1.41-1.2-2.77-1.2-4.52V28.23c0-1.22,.44-1.9,1.58-1.9s1.58,.68,1.58,1.9v21.19c0,2.13,.54,2.66,1.96,2.66h5.38c1.42,0,1.96-.53,1.96-2.66V28.23c0-1.22,.44-1.9,1.58-1.9s1.58,.68,1.58,1.9v21.19c0,1.75-.16,3.11-1.2,4.52-1.11,1.48-2.34,1.94-3.92,1.94h-5.38Z"/><path class="cls-1" d="M213.27,30.13v1.37c0,1.22-.44,1.9-1.58,1.9s-1.58-.68-1.58-1.9v-5.17h15.63v5.17c0,1.22-.44,1.9-1.58,1.9s-1.58-.68-1.58-1.9v-1.37h-3.07v23.85c0,1.22-.44,1.9-1.58,1.9s-1.58-.68-1.58-1.9V30.13h-3.07Z"/><path class="cls-1" d="M267.33,26.33h3.95v27.65c0,1.22-.44,1.9-1.58,1.9s-1.58-.68-1.58-1.9V31.57h-.06l-3,5.35v.61c0,1.18-.38,2.28-1.58,2.28-1.14,0-1.58-1.1-1.58-2.28v-.61l-3-5.35h-.06v22.41c0,1.22-.44,1.9-1.58,1.9s-1.58-.68-1.58-1.9V26.33h3.95l3.86,6.68,3.86-6.68Z"/><path class="cls-1" d="M287.83,53.98c0,1.22-.44,1.9-1.58,1.9s-1.58-.68-1.58-1.9v-12.15l-6.23-9.72v-3.87c0-1.22,.44-1.9,1.58-1.9s1.58,.68,1.58,1.9v2.58l4.65,7.25,4.65-7.25v-2.58c0-1.22,.44-1.9,1.58-1.9s1.58,.68,1.58,1.9v3.87l-6.23,9.72v12.15Z"/><path class="cls-1" d="M332.5,55.88c-2.37,0-3.73-1.14-4.74-3.61l-2.91-7.06c-.54-1.29-.85-2.51-.85-3.99,0-1.67,.25-2.7,.89-4.22l2.91-7.03c1.08-2.62,2.44-3.65,4.87-3.65h5.38c.7,0,1.58,.46,1.58,1.9,0,1.37-.85,1.9-1.58,1.9h-5.28c-1.36,0-1.58,.15-2.18,1.6l-2.75,6.61c-.41,1.03-.66,1.71-.66,2.89,0,1.06,.29,1.71,.66,2.62l2.69,6.57c.63,1.56,.95,1.67,2.37,1.67h5.16c.7,0,1.58,.46,1.58,1.9,0,1.37-.85,1.9-1.58,1.9h-5.54Z"/><path class="cls-1" d="M359.23,34.3v-6.08c0-1.22,.44-1.9,1.58-1.9s1.58,.68,1.58,1.9v6c0,.49-.03,1.03-.19,1.48l-6.04,18.5c-.32,.95-.6,1.67-1.58,1.67s-1.27-.72-1.58-1.67l-6.04-18.5c-.16-.46-.19-.99-.19-1.48v-6c0-1.22,.44-1.9,1.58-1.9s1.58,.68,1.58,1.9v6.08l4.65,14.51,4.65-14.51Z"/></g><g><path class="cls-1" d="M412.22,65.96c5.05,20.86,1.65,39.77-2.42,52.53l-4.46-.87c4.4-13.8,7.99-35.07,.16-58.05-3.31-9.7-8.37-18.83-15.03-27.13l3.85-2.51c6.93,8.63,12.2,18.13,15.64,28.23,.89,2.62,1.65,5.22,2.27,7.8Z"/><polygon class="cls-1" points="422.37 110.6 406.35 121.59 398.07 108.35 402.17 106.2 407.96 115.46 419.67 107.43 422.37 110.6"/></g></svg>