<?xml version="1.0" encoding="UTF-8"?><svg id="Layer_1" xmlns="http://www.w3.org/2000/svg" width="389.27" height="84.5" viewBox="0 0 389.27 84.5"><defs><style>.cls-1{fill:#fff;}.cls-2{opacity:.05;}.cls-3{fill:none;}</style></defs><g class="cls-2"><rect class="cls-1" width="389.27" height="84.5"/></g><rect class="cls-3" width="389.27" height="84.5"/><g><path class="cls-1" d="M107.06,30.12v1.37c0,1.22-.44,1.9-1.58,1.9s-1.58-.68-1.58-1.9v-5.16h15.63v5.16c0,1.22-.44,1.9-1.58,1.9s-1.58-.68-1.58-1.9v-1.37h-3.07v23.85c0,1.21-.44,1.9-1.58,1.9s-1.58-.68-1.58-1.9V30.12h-3.07Z"/><path class="cls-1" d="M129.84,43v10.98c0,1.21-.44,1.9-1.58,1.9s-1.58-.68-1.58-1.9V28.23c0-1.21,.44-1.9,1.58-1.9s1.58,.68,1.58,1.9v10.98h9.3v-10.98c0-1.21,.44-1.9,1.58-1.9s1.58,.68,1.58,1.9v25.75c0,1.21-.44,1.9-1.58,1.9s-1.58-.68-1.58-1.9v-10.98h-9.3Z"/><path class="cls-1" d="M163.49,52.08c.82,0,1.58,.53,1.58,1.9s-.76,1.9-1.58,1.9h-14.04V26.33h14.04c.82,0,1.58,.53,1.58,1.9s-.76,1.9-1.58,1.9h-10.88v9.08h4.65c.82,0,1.58,.53,1.58,1.9s-.76,1.9-1.58,1.9h-4.65v9.08h10.88Z"/><path class="cls-1" d="M204.4,52.08h4.65c.82,0,1.58,.53,1.58,1.9s-.76,1.9-1.58,1.9h-12.46c-.82,0-1.58-.53-1.58-1.9s.76-1.9,1.58-1.9h4.65V30.12h-4.65c-.82,0-1.58-.53-1.58-1.9s.76-1.9,1.58-1.9h12.46c.82,0,1.58,.53,1.58,1.9s-.76,1.9-1.58,1.9h-4.65v21.95Z"/><path class="cls-1" d="M220.88,30.12h-1.17c-1.04,0-1.93-.46-1.93-1.9,0-1.37,.85-1.9,1.83-1.9h5.28c2.47,0,3.7,1.21,4.78,3.8l2.78,6.69c.63,1.56,.95,2.66,.95,4.4,0,1.52-.35,2.81-.92,4.18l-2.88,6.91c-1.11,2.7-2.53,3.57-5,3.57h-5.25c-.82,0-1.58-.53-1.58-1.9s.76-1.9,1.58-1.9h1.52V30.12Zm3.16,21.95h.6c1.33,0,1.64-.19,2.21-1.6l2.78-6.76c.35-.87,.6-1.52,.6-2.47,0-1.29-.35-2.01-.79-3.12l-2.62-6.42c-.66-1.63-.95-1.6-2.4-1.6h-.38v21.95Z"/><path class="cls-1" d="M254.6,52.08c.82,0,1.58,.53,1.58,1.9s-.76,1.9-1.58,1.9h-14.04V26.33h14.04c.82,0,1.58,.53,1.58,1.9s-.76,1.9-1.58,1.9h-10.88v9.08h4.65c.82,0,1.58,.53,1.58,1.9s-.76,1.9-1.58,1.9h-4.65v9.08h10.88Z"/><path class="cls-1" d="M269.53,28.26c.25-1.03,.6-1.94,1.61-1.94s1.42,.95,1.64,1.94l6.1,25.71c.22,.91-.63,1.9-1.52,1.9-.98,0-1.49-.99-1.71-1.9l-1.17-4.56h-6.74l-1.2,4.56c-.22,.91-.73,1.9-1.71,1.9-.89,0-1.74-.99-1.52-1.9l6.2-25.71Zm1.64,7.06h-.06l-2.47,10.29h4.97l-2.44-10.29Z"/></g></svg>