<?xml version="1.0" encoding="UTF-8"?><svg id="Layer_1" xmlns="http://www.w3.org/2000/svg" width="389.27" height="84.5" viewBox="0 0 389.27 84.5"><defs><style>.cls-1{fill:#fff;}.cls-2{opacity:.05;}.cls-3{fill:none;}</style></defs><g class="cls-2"><rect class="cls-1" width="389.27" height="84.5"/></g><rect class="cls-3" width="389.27" height="84.5"/><g><path class="cls-1" d="M41.06,30.13v1.37c0,1.22-.44,1.9-1.58,1.9s-1.58-.68-1.58-1.9v-5.17h15.63v5.17c0,1.22-.44,1.9-1.58,1.9s-1.58-.68-1.58-1.9v-1.37h-3.07v23.85c0,1.22-.44,1.9-1.58,1.9s-1.58-.68-1.58-1.9V30.13h-3.07Z"/><path class="cls-1" d="M75.48,37c.6,1.48,.82,2.58,.82,4.22,0,1.82-.41,2.96-1.04,4.52l-2.91,6.99c-.76,1.82-2.02,3.15-3.86,3.15s-3.1-1.33-3.86-3.15l-2.91-6.99c-.63-1.56-1.04-2.7-1.04-4.52,0-1.63,.22-2.73,.82-4.22l3.16-7.56c.76-1.78,2.06-3.11,3.83-3.11s3.07,1.33,3.83,3.11l3.16,7.56Zm-5.92-5.73c-.25-.61-.41-1.14-1.08-1.14s-.82,.53-1.08,1.14l-2.85,6.87c-.47,1.1-.73,1.82-.73,3.08,0,.99,.19,1.67,.54,2.51l3.04,7.22c.22,.53,.44,1.14,1.08,1.14s.85-.61,1.08-1.14l3.04-7.22c.35-.84,.54-1.52,.54-2.51,0-1.25-.25-1.97-.73-3.08l-2.85-6.87Z"/><path class="cls-1" d="M109.39,30.13v1.37c0,1.22-.44,1.9-1.58,1.9s-1.58-.68-1.58-1.9v-5.17h15.63v5.17c0,1.22-.44,1.9-1.58,1.9s-1.58-.68-1.58-1.9v-1.37h-3.07v23.85c0,1.22-.44,1.9-1.58,1.9s-1.58-.68-1.58-1.9V30.13h-3.07Z"/><path class="cls-1" d="M132.17,43v10.98c0,1.22-.44,1.9-1.58,1.9s-1.58-.68-1.58-1.9V28.23c0-1.22,.44-1.9,1.58-1.9s1.58,.68,1.58,1.9v10.98h9.3v-10.98c0-1.22,.44-1.9,1.58-1.9s1.58,.68,1.58,1.9v25.75c0,1.22-.44,1.9-1.58,1.9s-1.58-.68-1.58-1.9v-10.98h-9.3Z"/><path class="cls-1" d="M165.82,52.08c.82,0,1.58,.53,1.58,1.9s-.76,1.9-1.58,1.9h-14.04V26.33h14.04c.82,0,1.58,.53,1.58,1.9s-.76,1.9-1.58,1.9h-10.88v9.08h4.65c.82,0,1.58,.53,1.58,1.9s-.76,1.9-1.58,1.9h-4.65v9.08h10.88Z"/><path class="cls-1" d="M200.49,53.98c0,1.22-.44,1.9-1.58,1.9s-1.58-.68-1.58-1.9V26.33h10.5c1.46,0,2.5,.27,3.64,1.56,1.36,1.52,1.49,2.92,1.49,4.98v5.17c0,1.94-.13,3.3-1.3,4.86-1.23,1.67-2.53,1.82-4.24,1.82h-6.93v9.27Zm0-13.06h7.02c1.87,0,2.28-.57,2.28-2.73v-5.32c0-2.17-.41-2.73-2.28-2.73h-7.02v10.79Z"/><path class="cls-1" d="M223.27,53.98c0,1.22-.44,1.9-1.58,1.9s-1.58-.68-1.58-1.9V26.33h10.63c2.5,0,5,2.13,5,5.51v2.62c0,3.57-2.47,5.39-5,5.39h-2.91l7.12,12.23c.35,.57,.79,1.29,.79,2.01,0,1.06-.73,1.79-1.61,1.79-.63,0-1.04-.46-1.39-1.06l-8.73-14.96h-.73v14.13Zm0-17.93h7.02c.89,0,2.28-.08,2.28-1.6v-2.62c0-1.52-1.3-1.71-2.25-1.71h-7.05v5.92Z"/><path class="cls-1" d="M257.69,37c.6,1.48,.82,2.58,.82,4.22,0,1.82-.41,2.96-1.04,4.52l-2.91,6.99c-.76,1.82-2.02,3.15-3.86,3.15s-3.1-1.33-3.86-3.15l-2.91-6.99c-.63-1.56-1.04-2.7-1.04-4.52,0-1.63,.22-2.73,.82-4.22l3.16-7.56c.76-1.78,2.06-3.11,3.83-3.11s3.07,1.33,3.83,3.11l3.16,7.56Zm-5.92-5.73c-.25-.61-.41-1.14-1.08-1.14s-.82,.53-1.08,1.14l-2.85,6.87c-.47,1.1-.73,1.82-.73,3.08,0,.99,.19,1.67,.54,2.51l3.04,7.22c.22,.53,.44,1.14,1.08,1.14s.85-.61,1.08-1.14l3.04-7.22c.35-.84,.54-1.52,.54-2.51,0-1.25-.25-1.97-.73-3.08l-2.85-6.87Z"/><path class="cls-1" d="M279.71,49.42c0,1.44,0,2.35-.6,3.65-1.08,2.17-2.66,2.81-4.62,2.81h-1.83c-1.77,0-3.29-.38-4.43-2.2-.79-1.25-.98-2.32-.98-3.84v-5.51c0-1.22,.44-1.9,1.58-1.9s1.58,.68,1.58,1.9v4.94c0,2.2,.38,2.81,2.25,2.81h1.74c1.33,0,2.15-.23,2.15-2.05V28.23c0-1.22,.44-1.9,1.58-1.9s1.58,.68,1.58,1.9v21.19Z"/><path class="cls-1" d="M302.48,52.08c.82,0,1.58,.53,1.58,1.9s-.76,1.9-1.58,1.9h-14.04V26.33h14.04c.82,0,1.58,.53,1.58,1.9s-.76,1.9-1.58,1.9h-10.88v9.08h4.65c.82,0,1.58,.53,1.58,1.9s-.76,1.9-1.58,1.9h-4.65v9.08h10.88Z"/><path class="cls-1" d="M319.72,55.88c-2.37,0-3.73-1.14-4.74-3.61l-2.91-7.06c-.54-1.29-.85-2.51-.85-3.99,0-1.67,.25-2.7,.89-4.22l2.91-7.03c1.08-2.62,2.44-3.65,4.87-3.65h5.38c.7,0,1.58,.46,1.58,1.9,0,1.37-.85,1.9-1.58,1.9h-5.28c-1.36,0-1.58,.15-2.18,1.6l-2.75,6.61c-.41,1.03-.66,1.71-.66,2.89,0,1.06,.29,1.71,.66,2.62l2.69,6.57c.63,1.56,.95,1.67,2.37,1.67h5.16c.7,0,1.58,.46,1.58,1.9,0,1.37-.85,1.9-1.58,1.9h-5.54Z"/><path class="cls-1" d="M337.15,30.13v1.37c0,1.22-.44,1.9-1.58,1.9s-1.58-.68-1.58-1.9v-5.17h15.63v5.17c0,1.22-.44,1.9-1.58,1.9s-1.58-.68-1.58-1.9v-1.37h-3.07v23.85c0,1.22-.44,1.9-1.58,1.9s-1.58-.68-1.58-1.9V30.13h-3.07Z"/></g></svg>