<?xml version="1.0" encoding="UTF-8"?><svg id="Layer_1" xmlns="http://www.w3.org/2000/svg" width="389.27" height="84.5" viewBox="0 0 389.27 84.5"><defs><style>.cls-1{fill:#fff;}.cls-2{opacity:.05;}.cls-3{fill:none;}</style></defs><g class="cls-2"><rect class="cls-1" width="389.27" height="84.5"/></g><rect class="cls-3" width="389.27" height="84.5"/><g><path class="cls-1" d="M57.67,55.88c-1.08,0-1.71-.27-1.93-1.63h-.06c-.22,1.37-.85,1.63-1.93,1.63h-2.37c-1.11,0-1.39-.23-1.93-1.37l-1.11-2.32c-.41-.84-.44-.91-.44-1.94V28.23c0-1.21,.44-1.9,1.58-1.9s1.58,.68,1.58,1.9v22.03l.85,1.82h1.36l.85-1.82v-11.96c0-1.18,.44-2.24,1.58-2.24s1.58,1.06,1.58,2.24v11.96l.85,1.82h1.36l.85-1.82V28.23c0-1.21,.44-1.9,1.58-1.9s1.58,.68,1.58,1.9v22.03c0,1.03-.03,1.1-.44,1.94l-1.11,2.32c-.54,1.14-.82,1.37-1.93,1.37h-2.37Z"/><path class="cls-1" d="M73.84,43v10.98c0,1.21-.44,1.9-1.58,1.9s-1.58-.68-1.58-1.9V28.23c0-1.21,.44-1.9,1.58-1.9s1.58,.68,1.58,1.9v10.98h9.3v-10.98c0-1.21,.44-1.9,1.58-1.9s1.58,.68,1.58,1.9v25.75c0,1.21-.44,1.9-1.58,1.9s-1.58-.68-1.58-1.9v-10.98h-9.3Z"/><path class="cls-1" d="M99.65,28.26c.25-1.03,.6-1.94,1.61-1.94s1.42,.95,1.64,1.94l6.1,25.71c.22,.91-.63,1.9-1.52,1.9-.98,0-1.49-.99-1.71-1.9l-1.17-4.56h-6.74l-1.2,4.56c-.22,.91-.73,1.9-1.71,1.9-.89,0-1.74-.99-1.52-1.9l6.2-25.71Zm1.64,7.06h-.06l-2.47,10.29h4.97l-2.44-10.29Z"/><path class="cls-1" d="M119.39,30.12v1.37c0,1.22-.44,1.9-1.58,1.9s-1.58-.68-1.58-1.9v-5.16h15.63v5.16c0,1.22-.44,1.9-1.58,1.9s-1.58-.68-1.58-1.9v-1.37h-3.07v23.85c0,1.21-.44,1.9-1.58,1.9s-1.58-.68-1.58-1.9V30.12h-3.07Z"/><path class="cls-1" d="M171.17,52.08h4.65c.82,0,1.58,.53,1.58,1.9s-.76,1.9-1.58,1.9h-12.46c-.82,0-1.58-.53-1.58-1.9s.76-1.9,1.58-1.9h4.65V30.12h-4.65c-.82,0-1.58-.53-1.58-1.9s.76-1.9,1.58-1.9h12.46c.82,0,1.58,.53,1.58,1.9s-.76,1.9-1.58,1.9h-4.65v21.95Z"/><path class="cls-1" d="M221.38,52.08c.82,0,1.58,.53,1.58,1.9s-.76,1.9-1.58,1.9h-14.04V28.23c0-1.21,.44-1.9,1.58-1.9s1.58,.68,1.58,1.9v23.85h10.88Z"/><path class="cls-1" d="M244.15,52.08c.82,0,1.58,.53,1.58,1.9s-.76,1.9-1.58,1.9h-14.04V26.33h14.04c.82,0,1.58,.53,1.58,1.9s-.76,1.9-1.58,1.9h-10.88v9.08h4.65c.82,0,1.58,.53,1.58,1.9s-.76,1.9-1.58,1.9h-4.65v9.08h10.88Z"/><path class="cls-1" d="M259.08,28.26c.25-1.03,.6-1.94,1.61-1.94s1.42,.95,1.64,1.94l6.1,25.71c.22,.91-.63,1.9-1.52,1.9-.98,0-1.49-.99-1.71-1.9l-1.17-4.56h-6.74l-1.2,4.56c-.22,.91-.73,1.9-1.71,1.9-.89,0-1.74-.99-1.52-1.9l6.2-25.71Zm1.64,7.06h-.06l-2.47,10.29h4.97l-2.44-10.29Z"/><path class="cls-1" d="M278.82,53.98c0,1.21-.44,1.9-1.58,1.9s-1.58-.68-1.58-1.9V26.33h10.63c2.5,0,5,2.13,5,5.51v2.62c0,3.57-2.47,5.39-5,5.39h-2.91l7.12,12.23c.35,.57,.79,1.29,.79,2.01,0,1.06-.73,1.79-1.61,1.79-.63,0-1.04-.46-1.39-1.06l-8.73-14.96h-.73v14.13Zm0-17.93h7.02c.89,0,2.28-.08,2.28-1.6v-2.62c0-1.52-1.3-1.71-2.25-1.71h-7.05v5.93Z"/><path class="cls-1" d="M310.93,28.26c0-1.22,.44-1.9,1.58-1.9s1.58,.68,1.58,1.9v27.65h-4.17l-8.26-22.79v-.04h-.06v20.89c0,1.21-.44,1.9-1.58,1.9s-1.58-.68-1.58-1.9V26.33h4.18l8.26,23.05h.03l.03-21.12Z"/><path class="cls-1" d="M335.26,52.08c.82,0,1.58,.53,1.58,1.9s-.76,1.9-1.58,1.9h-14.04V26.33h14.04c.82,0,1.58,.53,1.58,1.9s-.76,1.9-1.58,1.9h-10.88v9.08h4.65c.82,0,1.58,.53,1.58,1.9s-.76,1.9-1.58,1.9h-4.65v9.08h10.88Z"/><path class="cls-1" d="M347.09,30.12h-1.17c-1.04,0-1.93-.46-1.93-1.9,0-1.37,.85-1.9,1.83-1.9h5.28c2.47,0,3.7,1.21,4.78,3.8l2.78,6.69c.63,1.56,.95,2.66,.95,4.4,0,1.52-.35,2.81-.92,4.18l-2.88,6.91c-1.11,2.7-2.53,3.57-5,3.57h-5.25c-.82,0-1.58-.53-1.58-1.9s.76-1.9,1.58-1.9h1.52V30.12Zm3.16,21.95h.6c1.33,0,1.64-.19,2.21-1.6l2.78-6.76c.35-.87,.6-1.52,.6-2.47,0-1.29-.35-2.01-.79-3.12l-2.62-6.42c-.66-1.63-.95-1.6-2.4-1.6h-.38v21.95Z"/></g></svg>